<svg width="150" height="138" viewBox="0 0 150 138" fill="none" xmlns="http://www.w3.org/2000/svg">
<path d="M72.4029 14.1328L85.2748 14.1466L85.2678 89.2314L70.811 89.2416L70.8143 85.2298L70.8082 39.8177L53.9146 39.8336C53.8491 35.7959 53.9053 31.6067 53.9039 27.5559C65.3336 27.6205 71.5723 27.4965 72.4029 14.1328Z" fill="#FFD11B"/>
<path d="M135.263 59.4416L135.59 59.9278L135.824 59.2217L135.983 59.5394L135.852 59.6035L135.754 60.0101L136.053 60.0045L136.142 61.0227C134.032 76.8597 122.105 93.0852 109.771 102.877C109.205 102.207 108.746 101.495 108.25 100.773C118.979 92.9724 127.266 82.2759 132.137 69.9355C133.452 66.546 134.355 62.9613 135.263 59.4416Z" fill="#2CB57D"/>
<path d="M13.9609 63.1612C14.4443 61.2755 13.4313 60.2512 13.7036 58.5186C14.0129 60.0355 14.3568 62.2137 14.9815 63.5426L15.3801 63.5982C17.6097 70.5295 21.1921 79.673 25.9386 85.2519C28.7204 90.3648 36.834 97.4037 41.4991 101.06C40.9812 101.764 40.4318 102.413 39.8792 103.087C27.1135 92.6656 17.4946 79.5116 13.9609 63.1612Z" fill="#2CB57D"/>
<path d="M127.733 92.5752C131.814 92.746 134.013 93.1629 138.037 94.0426C135.126 96.4935 131.678 98.6277 127.972 99.5752C123.429 99.7881 121.351 99.673 117.57 96.9956C120.958 93.8016 123.232 93.0286 127.733 92.5752Z" fill="#2CB57D"/>
<path d="M21.438 92.5914C25.6501 92.4912 29.1618 94.0854 32.1139 97.0492C29.0051 99.4122 26.505 99.6368 22.844 99.6639C18.4896 99.2868 15.0416 96.5513 11.6328 94.0499C15.181 93.2418 17.8177 92.8047 21.438 92.5914Z" fill="#2CB57D"/>
<path d="M6.05469 80.2471C12.3823 80.4473 19.4946 81.0655 23.1907 87.0913C23.5065 87.6055 23.2913 87.7913 23.077 88.2414C22.8585 88.305 22.6395 88.3659 22.4191 88.4234C17.7891 89.6194 13.1427 88.0968 9.66561 84.9449C8.67831 84.0503 6.35415 81.502 6.05469 80.2471Z" fill="#2CB57D"/>
<path d="M139.444 80.5122C140.16 80.3892 143.178 80.2886 144.053 80.2432C139.739 85.4801 138.251 87.7275 131.274 88.916C129.781 88.9005 127.498 88.879 126.478 87.6793C126.431 87.0621 126.356 86.713 126.894 86.159C130.708 82.2496 134.353 81.0447 139.444 80.5122Z" fill="#2CB57D"/>
<path d="M147.824 66.4531L148.349 66.521C148.297 67.9411 145.097 72.8743 144.03 73.907C140.937 76.9021 137.811 77.7168 133.74 77.7126L133.104 77.3874C132.903 76.4445 133.474 75.5134 133.984 74.6332C136.964 69.4567 142.448 67.8775 147.824 66.4531Z" fill="#2CB57D"/>
<path d="M1.0625 66.249C8.04894 67.7426 14.4996 70.1552 16.9314 77.5206C14.6858 77.8973 12.3814 77.6727 10.251 76.8693C5.39166 75.0276 3.10308 70.6722 1.0625 66.249Z" fill="#2CB57D"/>
<path d="M0 51.1895C6.33463 53.6423 11.5163 58.2072 12.3651 65.2241C3.76576 64.5704 1.63162 58.2999 0 51.1895Z" fill="#2CB57D"/>
<path d="M149.196 51.3125C149.491 51.3991 149.332 51.3102 149.561 51.7271C148.298 58.8665 145.706 63.629 138.135 65.2807L137.639 64.9887C137.363 64.1399 137.676 62.9191 137.929 62.0441C139.487 56.6589 144.686 53.8926 149.196 51.3125Z" fill="#2CB57D"/>
<path d="M1.55469 36.9619C7.01245 40.4521 10.7006 45.7143 10.3571 52.3521C8.9426 52.4232 6.57869 51.1196 5.61619 50.1407C1.77975 46.2407 1.56639 41.9359 1.55469 36.9619Z" fill="#2CB57D"/>
<path d="M5.64493 23.8242C10.2445 27.8759 13.0104 34.816 11.069 40.8147C3.91411 37.0517 4.32635 30.5711 5.64493 23.8242Z" fill="#2CB57D"/>
<path d="M143.854 23.8848C145.038 25.2534 145.117 30.7369 144.738 32.4509C143.868 36.3519 142.202 38.5562 139.006 40.7353L138.669 40.507C135.782 34.739 140.438 28.2907 143.854 23.8848Z" fill="#2CB57D"/>
<path d="M147.923 37.084L148.064 37.2431C148.532 39.2359 147.741 44.6586 146.669 46.5822C144.84 49.8763 143.034 51.3086 139.627 52.484C137.077 47.0197 144.161 40.125 147.923 37.084Z" fill="#2CB57D"/>
<path d="M114.008 0C120.76 2.02537 125.191 5.00159 125.388 12.5995C124.424 12.4332 123.488 12.1495 122.594 11.7549C117.704 9.62286 115.781 4.6026 114.008 0Z" fill="#2CB57D"/>
<path d="M120.867 31.5752C127.638 31.5813 133.295 33.3823 135.181 40.5652C134.268 40.6551 133.346 40.6425 132.434 40.5278C127.123 39.833 123.867 35.5263 120.867 31.5752Z" fill="#2CB57D"/>
<path d="M117.109 22.0724C123.576 21.8029 129.893 22.7678 132.111 29.8712C125.494 31.1364 121.002 26.6557 117.109 22.0724Z" fill="#2CB57D"/>
<path d="M128.907 1.0498C133.291 5.05708 133.862 12.2374 130.652 17.2343L130.18 17.4932C129.398 17.2236 129.061 16.5412 128.654 15.8061C125.945 10.938 127.461 5.96965 128.907 1.0498Z" fill="#2CB57D"/>
<path d="M26.3124 31.7018C27.1846 31.5717 27.1925 31.5815 28.0741 31.6756L28.2519 32.0246C27.2421 35.6851 20.7648 39.8987 17.0762 40.602C15.8044 40.6806 15.432 40.9089 14.7198 39.8224C14.6515 37.4281 17.9508 34.6847 19.8168 33.5196C21.9107 32.2122 23.9405 31.9629 26.3124 31.7018Z" fill="#2CB57D"/>
<path d="M119.015 69.0078C124.05 72.6922 126.404 78.7063 123.938 84.638L123.498 84.8991C122.628 84.6226 121.935 83.7691 121.355 83.0439C118.192 79.0989 118.477 73.7557 119.015 69.0078Z" fill="#2CB57D"/>
<path d="M114.012 12.7932C115.841 12.675 118.724 12.4642 120.478 12.91C122.546 13.4354 128.166 16.8507 127.291 19.3324L126.215 19.7139C120.97 19.9802 116.857 17.694 113.099 14.0996C112.655 13.6766 112.701 13.5385 112.772 13.0246L114.012 12.7932Z" fill="#2CB57D"/>
<path d="M123.891 49.9219C130.081 52.1987 134.26 56.6753 133.525 63.5658C132.566 63.5953 131.125 62.8649 130.353 62.331C126.445 59.6353 124.775 54.3039 123.891 49.9219Z" fill="#2CB57D"/>
<path d="M25.5235 49.9746L25.7701 50.3616C25.189 55.7702 21.7067 61.7946 16.4277 63.7098C15.724 62.5353 15.9462 59.8972 16.3978 58.6151C17.984 54.1105 21.571 52.0919 25.5235 49.9746Z" fill="#2CB57D"/>
<path d="M123.117 40.3389C129.902 41.9859 134.581 44.843 135.007 52.3961C128.058 51.3012 125.672 46.0559 123.117 40.3389Z" fill="#2CB57D"/>
<path d="M30.4125 69.1562L30.8014 69.4318C31.6315 74.9696 31.019 81.8615 25.9402 85.2525C23.3054 77.6938 25.1939 74.578 30.4125 69.1562Z" fill="#2CB57D"/>
<path d="M122.234 59.6738C128.004 62.6034 130.629 67.9662 129.492 74.313C129.286 74.5194 129.117 74.5662 128.837 74.7084C123.282 72.4152 122.482 64.8284 122.234 59.6738Z" fill="#2CB57D"/>
<path d="M28.8693 22.1148C30.0311 22.0376 31.5177 22.0517 32.7086 22.0273C29.4037 25.9171 26.715 28.6137 21.7439 29.9529C19.8311 30.1241 19.4319 30.126 17.5312 29.8883C19.7786 24.1938 23.0634 22.5828 28.8693 22.1148Z" fill="#2CB57D"/>
<path d="M35.9829 76.8135C38.0422 80.6387 38.8634 91.0236 34.4089 93.3889C33.27 91.9421 32.5003 90.2398 32.1652 88.429C31.3394 83.8593 33.6111 80.3991 35.9829 76.8135Z" fill="#2CB57D"/>
<path d="M26.1844 40.4326L26.3665 40.7775C25.0095 45.94 20.3734 51.2695 15.0387 52.3743C14.3354 51.2143 14.984 48.6197 15.6423 47.485C18.0881 43.2696 21.764 41.7578 26.1844 40.4326Z" fill="#2CB57D"/>
<path d="M137.43 12.0488C138.689 13.3828 139.92 18.2463 139.742 20.2301C139.414 23.9383 138.549 25.9766 135.938 28.4771L135.624 28.4088C131.769 23.9126 135.128 16.5128 137.43 12.0488Z" fill="#2CB57D"/>
<path d="M113.552 76.9512C114.301 77.4313 115.157 78.8364 115.643 79.6337C118.32 84.0251 118.343 88.6743 115.681 92.9763L115.241 93.2524C114.375 92.9033 114.244 92.6441 113.678 91.6924C110.801 86.8883 112.242 81.8713 113.552 76.9512Z" fill="#2CB57D"/>
<path d="M29.834 12.7697C32.6691 12.515 34.9534 12.7301 37.7619 13.0447C34.8612 15.6856 32.6953 17.4571 29.1789 19.1152C25.8099 19.8975 25.2199 19.9327 21.8125 19.3784C23.7445 15.5163 25.7533 14.0232 29.834 12.7697Z" fill="#2CB57D"/>
<path d="M20.5634 1.08887C21.8001 2.50422 22.7036 8.25241 22.5221 10.2662C22.2624 13.1495 21.736 15.6847 19.5466 17.7042C14.6405 11.9482 17.2136 6.59408 20.5634 1.08887Z" fill="#2CB57D"/>
<path d="M27.117 59.7783L27.4581 60.1545C27.5368 62.4225 27.2541 64.6886 26.6215 66.8682C25.5706 70.3962 23.9048 73.1523 20.6032 74.9289C17.4897 68.5353 22.5343 63.3466 27.117 59.7783Z" fill="#2CB57D"/>
<path d="M12.0861 12.0293C13.2441 13.1383 14.8683 17.1729 15.2398 18.8281C16.0839 22.5886 16.0559 25.3433 14.0644 28.6566C8.21127 23.6302 9.66366 18.2491 12.0861 12.0293Z" fill="#2CB57D"/>
<path d="M35.228 0.0898438L35.4648 0.379203C34.5715 5.7351 29.9195 11.128 24.6424 12.5846C24.0397 11.3881 24.5338 8.87069 25.1019 7.68523C27.1916 3.32431 31.0051 1.72076 35.228 0.0898438Z" fill="#2CB57D"/>
<path d="M12.7898 56.3291C11.2148 46.1351 13.6868 33.0756 18.0136 23.8418C18.1498 24.2821 15.3993 32.2334 15.0035 33.8065C13.2175 40.9034 13.064 47.6545 13.7322 54.8688C13.9708 56.4522 15.3212 62.799 15.3806 63.5991L14.982 63.5434C14.3573 62.2146 14.0134 60.0364 13.7041 58.5194C13.4318 60.2521 14.4448 61.2764 13.9614 63.1621C13.3705 60.8155 13.0476 58.7249 12.7898 56.3291Z" fill="#2CB57D"/>
<path d="M136.089 53.9916C136.832 44.951 136.121 36.5837 132.944 28.1346C132.617 27.2643 131.704 24.8526 131.76 24.002C132.35 24.8334 133.131 27.1098 133.534 28.1837C136.753 36.886 137.946 46.2101 137.015 55.443C136.781 57.5585 136.617 59.1569 136.149 61.2251L136.06 60.2069L135.761 60.2125L135.859 59.8059L135.99 59.7418L135.831 59.4241L135.597 60.1301L135.27 59.644C135.555 57.7616 135.826 55.8773 136.089 53.9916Z" fill="#2CB57D"/>
<path d="M83.2567 104.688C84.2011 104.648 85.3545 104.899 86.2107 105.289C87.8868 106.042 89.1938 107.432 89.8425 109.151C90.544 111.035 90.3823 112.858 89.5561 114.662L80.5097 109.424L78.63 110.537C77.0294 111.502 75.3796 112.44 73.7701 113.396L71.8635 114.519C71.6159 114.664 71.14 114.965 70.8984 115.073C70.9363 114.629 70.9118 113.658 70.9077 113.172C70.9014 112.406 70.9362 111.462 70.8986 110.712L77.1272 107.198L79.1771 106.041C80.6765 105.194 81.4802 104.749 83.2567 104.688Z" fill="#1F1F1F"/>
<path d="M81.1529 118.401C82.3959 119.073 83.7016 119.867 84.9342 120.577L84.8601 128.027L84.8428 130.104C84.8357 130.934 84.8496 131.664 84.6636 132.478C84.253 134.264 83.1521 135.814 81.6015 136.79C79.8858 137.863 78.0979 138.068 76.1509 137.617C74.3913 137.102 73.2318 136.237 72.1875 134.745C72.8463 134.378 73.4943 133.991 74.1492 133.617L78.2751 131.251C79.2297 130.698 80.2801 130.058 81.2469 129.547L81.1529 118.401Z" fill="#1F1F1F"/>
<path d="M63.4468 109.671L63.4745 109.691C63.4912 110.053 63.4759 110.516 63.4751 110.888L63.4703 113.184L63.4629 120.116C64.4531 120.645 65.4553 121.245 66.4342 121.798L73.1627 125.601C72.7516 125.822 72.3263 126.092 71.9164 126.324C71.0699 126.803 70.2269 127.308 69.379 127.784C69.2246 127.709 68.9363 127.524 68.7778 127.43L67.7243 126.813C66.8848 126.293 65.9737 125.774 65.1187 125.272L62.5084 123.729L60.9945 122.836C60.372 122.468 59.9038 122.211 59.3547 121.733C57.9866 120.532 57.1469 118.84 57.0178 117.024C56.8855 115.189 57.4956 113.378 58.7111 111.997C59.9198 110.626 61.6227 109.79 63.4468 109.671Z" fill="#1F1F1F"/>
<path d="M80.5341 111.564C82.5848 112.787 84.706 113.992 86.7766 115.189L88.7705 116.339C89.5433 116.79 90.2333 117.163 90.8805 117.789C91.7719 118.65 92.2877 119.555 92.6928 120.709C92.7562 120.936 92.81 121.131 92.8579 121.362C92.9054 121.592 92.9409 121.824 92.9644 122.058C93.1576 123.89 92.6054 125.723 91.4322 127.144C90.2501 128.571 88.5463 129.466 86.7003 129.63L86.7911 119.506C86.5182 119.373 86.104 119.12 85.8262 118.96L83.8045 117.788C81.4866 116.452 79.1419 115.066 76.8125 113.759C77.6463 113.259 78.4838 112.765 79.3248 112.277C79.7236 112.043 80.1323 111.787 80.5341 111.564Z" fill="#1F1F1F"/>
<path d="M69.3736 129.937L75.3333 126.493C76.6563 125.727 78.0278 124.905 79.3594 124.161L79.394 128.474L73.1586 132.061L71.191 133.195C70.3174 133.696 69.7056 134.087 68.7273 134.36C67.547 134.68 66.303 134.683 65.1215 134.367C64.0653 134.078 63.0902 133.549 62.2728 132.82C62.1203 132.68 61.9944 132.55 61.8513 132.401C59.8712 130.301 59.5395 127.38 60.6642 124.78C60.7827 124.865 61.0474 125.011 61.1805 125.089L62.1611 125.665C62.3199 125.758 62.5014 125.858 62.6536 125.958L66.6729 128.334C67.5143 128.826 68.5637 129.414 69.3736 129.937Z" fill="#1F1F1F"/>
<path d="M71.8703 101.715C72.3252 101.669 73.0545 101.744 73.5019 101.826C75.2715 102.159 76.8382 103.177 77.8623 104.658C77.5594 104.849 77.1004 105.088 76.7781 105.27L74.5422 106.532L69.055 109.624L69.0538 118.865C69.0536 119.538 69.0267 120.5 69.0647 121.154C67.8283 120.504 66.543 119.725 65.3125 119.039L65.3203 111.785L65.3221 109.608C65.3232 108.721 65.2921 107.983 65.4885 107.108C65.7385 105.985 66.2656 104.942 67.0218 104.075C68.2922 102.624 69.9572 101.841 71.8703 101.715Z" fill="#1F1F1F"/>
<path d="M74.9733 114.835C75.1094 114.883 75.723 115.265 75.897 115.363C76.5753 115.747 77.2507 116.136 77.923 116.53C78.3463 116.778 78.8663 117.096 79.298 117.317L79.3416 122.04L75.2069 124.427L75.022 124.531C73.6937 123.773 72.2562 122.935 70.9186 122.213L70.9141 117.232C71.5636 116.855 72.2109 116.473 72.8558 116.088C73.5663 115.678 74.2721 115.26 74.9733 114.835Z" fill="#1F1F1F"/>
</svg>
